<?xml version="1.0" encoding="UTF-8" standalone="no"?>
<!-- Created with Inkscape (http://www.inkscape.org/) -->

<svg
   xmlns:dc="http://purl.org/dc/elements/1.1/"
   xmlns:cc="http://creativecommons.org/ns#"
   xmlns:rdf="http://www.w3.org/1999/02/22-rdf-syntax-ns#"
   xmlns:svg="http://www.w3.org/2000/svg"
   xmlns="http://www.w3.org/2000/svg"
   xmlns:sodipodi="http://sodipodi.sourceforge.net/DTD/sodipodi-0.dtd"
   xmlns:inkscape="http://www.inkscape.org/namespaces/inkscape"
   width="512"
   height="512"
   viewBox="0 0 135.46666 135.46667"
   version="1.1"
   id="svg8"
   inkscape:export-filename="/home/rob/Development/Repos/PiPup/graphics/icon.png"
   inkscape:export-xdpi="96"
   inkscape:export-ydpi="96"
   inkscape:version="0.91 r13725"
   sodipodi:docname="ic_shape.svg">
  <defs
     id="defs2" />
  <sodipodi:namedview
     id="base"
     pagecolor="#000000"
     bordercolor="#666666"
     borderopacity="1.0"
     inkscape:pageopacity="0"
     inkscape:pageshadow="2"
     inkscape:zoom="0.62"
     inkscape:cx="230.64151"
     inkscape:cy="158.4988"
     inkscape:document-units="mm"
     inkscape:current-layer="text4150"
     showgrid="false"
     units="px"
     inkscape:window-width="1600"
     inkscape:window-height="837"
     inkscape:window-x="-8"
     inkscape:window-y="-8"
     inkscape:window-maximized="1"
     fit-margin-top="0"
     fit-margin-left="0"
     fit-margin-right="0"
     fit-margin-bottom="0" />
  <metadata
     id="metadata5">
    <rdf:RDF>
      <cc:Work
         rdf:about="">
        <dc:format>image/svg+xml</dc:format>
        <dc:type
           rdf:resource="http://purl.org/dc/dcmitype/StillImage" />
        <dc:title></dc:title>
      </cc:Work>
    </rdf:RDF>
  </metadata>
  <g
     inkscape:label="Layer 1"
     inkscape:groupmode="layer"
     id="layer1"
     transform="translate(-7.1886087,-133.00739)">
    <g
       style="font-style:normal;font-weight:normal;font-size:10.58333397px;line-height:125%;font-family:sans-serif;letter-spacing:0px;word-spacing:0px;fill:#ffffff;fill-opacity:1;stroke:none;stroke-width:1px;stroke-linecap:butt;stroke-linejoin:miter;stroke-opacity:1"
       id="text4150">
      <path
         d="m 36.047092,179.53877 9.859864,0 q 3.999756,0 6.139161,0.62787 2.162659,0.62787 3.232361,1.81384 1.092957,1.18598 1.465027,2.88355 0.395325,1.67431 0.395325,5.20898 l 0,3.27887 q 0,3.60443 -0.744141,5.25549 -0.744141,1.65107 -2.744019,2.53473 -1.976624,0.88367 -5.18573,0.88367 l -2.627747,0 0,15.16187 -9.790101,0 0,-37.64887 z m 9.790101,6.44147 0,9.58081 q 0.418579,0.0233 0.720886,0.0233 1.348755,0 1.860352,-0.65112 0.534851,-0.67438 0.534851,-2.76727 l 0,-3.09284 q 0,-1.93011 -0.604614,-2.51147 -0.604615,-0.58136 -2.511475,-0.58136 z"
         style="font-style:normal;font-variant:normal;font-weight:normal;font-stretch:condensed;font-size:47.62500381px;font-family:Impact;-inkscape-font-specification:'Impact Condensed'"
         id="path4175"
         inkscape:connector-curvature="0" />
      <path
         d="m 69.347388,179.53877 0,4.90668 -9.673829,0 0,-4.90668 9.673829,0 z m 0,6.79028 0,30.85859 -9.673829,0 0,-30.85859 9.673829,0 z"
         style="font-style:normal;font-variant:normal;font-weight:normal;font-stretch:condensed;font-size:47.62500381px;font-family:Impact;-inkscape-font-specification:'Impact Condensed'"
         id="path4177"
         inkscape:connector-curvature="0" />
      <path
         d="m 72.975074,179.53877 9.859864,0 q 3.999757,0 6.139161,0.62787 2.162659,0.62787 3.232361,1.81384 1.092957,1.18598 1.465027,2.88355 0.395325,1.67431 0.395325,5.20898 l 0,3.27887 q 0,3.60443 -0.744141,5.25549 -0.74414,1.65107 -2.744019,2.53473 -1.976623,0.88367 -5.18573,0.88367 l -2.627747,0 0,15.16187 -9.790101,0 0,-37.64887 z m 9.790101,6.44147 0,9.58081 q 0.418579,0.0233 0.720887,0.0233 1.348755,0 1.860351,-0.65112 0.534851,-0.67438 0.534851,-2.76727 l 0,-3.09284 q 0,-1.93011 -0.604614,-2.51147 -0.604614,-0.58136 -2.511475,-0.58136 z"
         style="font-style:normal;font-variant:normal;font-weight:normal;font-stretch:condensed;font-size:47.62500381px;font-family:Impact;-inkscape-font-specification:'Impact Condensed'"
         id="path4179"
         inkscape:connector-curvature="0" />
      <path
         d="m 107.26308,206.79292 q 0,0.11627 -0.0698,0.26743 -0.43021,0.84878 -0.99994,1.7557 -0.56974,0.90693 -1.23249,1.77897 -0.66275,0.87204 -1.39526,1.65106 -0.72089,0.76739 -1.4534,1.36038 -0.72089,0.58136 -1.43015,0.93018 -0.697636,0.33718 -1.313877,0.33718 -1.348755,0 -2.11615,-1.02319 -0.755768,-1.02319 -0.802277,-3.02307 l -0.151153,-0.0581 q -0.116272,0.11628 -0.383698,0.47672 -0.255798,0.36044 -0.627869,0.83716 -0.360443,0.46509 -0.813904,0.97668 -0.441833,0.5116 -0.918548,0.93018 -0.29068,0.24417 -0.709259,0.59298 -0.406952,0.33719 -0.930176,0.66276 -0.511597,0.31393 -1.127838,0.5581 -0.616242,0.23254 -1.302247,0.26743 -0.825531,0 -1.302246,-0.31394 -0.476715,-0.31393 -0.720886,-0.80227 -0.244171,-0.48835 -0.313934,-1.08133 -0.05814,-0.59299 -0.05814,-1.1511 0,-0.0698 0.02325,-0.34881 0.02325,-0.27906 0.06976,-0.69763 0.04651,-0.43021 0.116272,-0.95343 0.08139,-0.52323 0.186035,-1.05808 0.116272,-0.54648 0.255799,-1.0697 0.151153,-0.53485 0.348816,-0.97669 0.104644,-0.24417 0.186035,-0.45346 0.09302,-0.20929 0.186035,-0.34881 0.104645,-0.15116 0.232544,-0.23255 0.127899,-0.093 0.313934,-0.10464 0.232544,0 0.383698,0.093 0.162781,0.093 0.255798,0.24417 0.09302,0.13952 0.127899,0.31393 0.04651,0.17441 0.04651,0.34882 0,0.1744 -0.162781,0.686 -0.151153,0.5116 -0.337188,1.24411 -0.186036,0.73252 -0.348816,1.63944 -0.151154,0.89529 -0.151154,1.86035 0,0.18603 0.03488,0.44183 0.03488,0.24417 0.139526,0.47672 0.104645,0.22091 0.279053,0.38369 0.186035,0.15116 0.476715,0.15116 0.395325,-0.0233 0.813904,-0.16278 0.418579,-0.15116 0.825531,-0.37207 0.418579,-0.23255 0.802277,-0.5116 0.383697,-0.29068 0.697631,-0.59299 0.337189,-0.31393 0.70926,-0.72088 0.383697,-0.41858 0.74414,-0.86042 0.360443,-0.45346 0.674378,-0.89529 0.313934,-0.44183 0.523224,-0.8139 0.104644,-0.19767 0.29068,-0.58136 0.197662,-0.3837 0.383697,-0.81391 0.197662,-0.4302 0.348816,-0.8139 0.162781,-0.3837 0.20929,-0.58136 0.04651,-0.17441 0.06976,-0.32556 0.03488,-0.15116 0.06976,-0.29068 0.03488,-0.15116 0.08139,-0.31394 0.04651,-0.16278 0.116272,-0.37207 0.03488,-0.0814 0.1279,-0.17441 0.104644,-0.10464 0.244171,-0.18603 0.139526,-0.0814 0.29068,-0.1279 0.151153,-0.0581 0.29068,-0.0581 0.325561,0 0.488342,0.19767 0.174408,0.19766 0.197662,0.48834 0,0.0116 -0.05814,0.26742 -0.04651,0.2558 -0.127899,0.67438 -0.08139,0.41858 -0.174408,0.95343 -0.08139,0.53485 -0.162781,1.10459 -0.08139,0.5581 -0.139526,1.10458 -0.04651,0.53485 -0.04651,0.96506 0,1.23248 0.406952,1.90686 0.418579,0.66275 1.092957,0.66275 0.581362,0 1.209232,-0.33719 0.6395,-0.34882 1.27899,-0.90692 0.65112,-0.55811 1.26736,-1.24411 0.62787,-0.69763 1.19761,-1.38364 0.56973,-0.69763 1.05807,-1.3255 0.48834,-0.62787 0.84879,-1.05807 0.36044,-0.3837 0.56973,-0.3837 0.1279,0 0.20929,0.093 0.0814,0.093 0.0814,0.22091 z"
         style="font-style:normal;font-variant:normal;font-weight:normal;font-stretch:normal;font-size:23.81250191px;font-family:'Segoe Script';-inkscape-font-specification:'Segoe Script'"
         id="path4181"
         inkscape:connector-curvature="0" />
      <path
         d="m 116.97179,207.40916 q 0,1.25574 -0.29068,2.33707 -0.29068,1.08133 -0.83716,2.04639 -0.54647,0.95343 -1.34875,1.82547 -0.80228,0.86041 -1.81384,1.7092 -0.3837,0.31393 -0.87204,0.61624 -0.47672,0.3023 -0.99994,0.53485 -0.52323,0.23254 -1.05808,0.3837 -0.52322,0.13952 -0.98831,0.13952 -0.33719,0 -0.54648,-0.0698 -0.20929,-0.0814 -0.37207,-0.22092 -0.15115,-0.13952 -0.29068,-0.32556 -0.13952,-0.19766 -0.32556,-0.43021 -0.26743,0.79065 -0.43021,1.3255 -0.16278,0.53486 -0.26742,0.95344 -0.10465,0.41857 -0.16278,0.79064 -0.0581,0.3837 -0.11627,0.86042 -0.0581,0.47671 -0.15116,1.12784 -0.0814,0.66275 -0.23254,1.6278 -0.0233,0.18604 -0.1279,0.43021 -0.10465,0.24417 -0.2558,0.46509 -0.13953,0.22091 -0.31393,0.37207 -0.16278,0.15115 -0.31394,0.15115 -0.16278,0 -0.39532,-0.10464 -0.23255,-0.093 -0.44184,-0.24417 -0.20929,-0.13953 -0.36044,-0.29068 -0.15115,-0.15116 -0.15115,-0.2558 0,-0.40695 0.093,-0.81391 0.10465,-0.40695 0.17441,-0.77902 0.36045,-1.8371 0.74414,-3.44165 0.39533,-1.60455 0.70926,-3.18585 0.31394,-1.5813 0.5116,-3.25562 0.20929,-1.68594 0.20929,-3.67419 0,-0.0465 -0.0116,-0.20929 0,-0.17441 0,-0.36044 0,-0.19767 -0.0116,-0.36045 0,-0.16278 0,-0.22091 0,-0.3837 0.093,-0.75577 0.10465,-0.37207 0.29068,-0.66275 0.18604,-0.30231 0.43021,-0.48835 0.2558,-0.18603 0.5581,-0.18603 0.1279,0 0.2558,0.13953 0.1279,0.1279 0.23255,0.36044 0.10464,0.22092 0.16278,0.53485 0.0698,0.31393 0.0698,0.67438 0,0.60461 -0.0698,1.38363 -0.0698,0.77903 -0.17441,1.5813 -0.093,0.79065 -0.19766,1.51154 -0.10465,0.72089 -0.16278,1.20923 0.45346,-1.0232 1.04644,-1.95337 0.60462,-0.93018 1.25574,-1.72083 0.65112,-0.79065 1.3255,-1.41852 0.68601,-0.63949 1.31387,-1.09295 0.62787,-0.45346 1.17435,-0.68601 0.54648,-0.24417 0.93018,-0.24417 0.52322,0 0.97668,0.20929 0.46509,0.19766 0.80228,0.53485 0.34881,0.32556 0.53485,0.75577 0.19766,0.41858 0.19766,0.86041 z m -1.90686,1.08133 q 0,-0.51159 -0.11627,-0.82553 -0.11627,-0.31393 -0.27905,-0.47671 -0.16278,-0.17441 -0.34882,-0.23255 -0.17441,-0.0581 -0.29068,-0.0581 -0.46509,0 -1.0697,0.41858 -0.60462,0.40695 -1.25574,1.08133 -0.65112,0.66275 -1.30224,1.51153 -0.65113,0.84879 -1.20923,1.7092 -0.13953,0.22092 -0.37207,0.59299 -0.22092,0.37207 -0.43021,0.77902 -0.20929,0.39532 -0.36044,0.75577 -0.15116,0.36044 -0.15116,0.54647 0,0.10465 0.093,0.26743 0.093,0.16278 0.26743,0.32556 0.18603,0.15116 0.45346,0.26743 0.27905,0.11627 0.63949,0.11627 0.48835,0 1.10459,-0.29068 0.61624,-0.30231 1.24411,-0.80228 0.63949,-0.51159 1.24411,-1.18597 0.61624,-0.67438 1.08133,-1.41852 0.47671,-0.75577 0.76739,-1.54642 0.29068,-0.79065 0.29068,-1.53479 z"
         style="font-style:normal;font-variant:normal;font-weight:normal;font-stretch:normal;font-size:23.81250191px;font-family:'Segoe Script';-inkscape-font-specification:'Segoe Script'"
         id="path4183"
         inkscape:connector-curvature="0" />
    </g>
  </g>
</svg>
